<svg version="1.1" xmlns="http://www.w3.org/2000/svg" width="1320" height="1000">
<path d="M0 0 C435.6 0 871.2 0 1320 0 C1320 330 1320 660 1320 1000 C884.4 1000 448.8 1000 0 1000 C0 670 0 340 0 0 Z " fill="#FBFBFB" transform="translate(0,0)"/>
<path d="M0 0 C1.5616158 -0.00299812 3.12323086 -0.00640213 4.68484497 -0.01017761 C8.89300965 -0.01894735 13.10115395 -0.02135251 17.30932689 -0.0219934 C19.94082965 -0.02270697 22.57232732 -0.02484691 25.20382881 -0.02749062 C34.38963269 -0.03671498 43.57542212 -0.04082844 52.76123047 -0.04003906 C61.31888748 -0.03943641 69.87648184 -0.05003222 78.43412298 -0.06578273 C85.79400966 -0.07884552 93.15387579 -0.08422362 100.51377398 -0.08358365 C104.90458519 -0.08332865 109.29534043 -0.08618243 113.68614006 -0.0967617 C117.80744907 -0.10642346 121.92864827 -0.10653518 126.04996109 -0.09924507 C127.56248319 -0.0981974 129.07501208 -0.10057289 130.58752251 -0.10660553 C132.65039225 -0.11430166 134.71288029 -0.10969706 136.77574158 -0.10197449 C138.50756133 -0.10279164 138.50756133 -0.10279164 140.27436733 -0.1036253 C143.19046797 0.14285255 144.81934946 0.50649012 147.21899414 2.14526367 C150.86852242 8.22766047 150.62729003 14.10153992 150.55957031 21.04736328 C150.56000839 22.2285675 150.56044647 23.40977173 150.56089783 24.62677002 C150.55917252 27.84748567 150.54418278 31.06780442 150.52317595 34.28844142 C150.50435391 37.66099095 150.50265438 41.03354924 150.49909973 44.40614319 C150.48979542 50.78440026 150.46520371 57.16250208 150.43505126 63.54069096 C150.40145679 70.80550568 150.3850086 78.07032802 150.36996496 85.33520114 C150.33865255 100.27197498 150.28592372 115.20860376 150.21899414 130.14526367 C151.24379883 130.11045898 152.26860352 130.0756543 153.32446289 130.03979492 C154.6851235 130.01164332 156.04580194 129.98434464 157.40649414 129.95776367 C158.0800293 129.93262695 158.75356445 129.90749023 159.44750977 129.8815918 C163.93740991 129.81588594 166.65615723 130.39568301 170.21899414 133.14526367 C172.69959246 136.16220757 174.05999609 138.29727409 174.78149414 142.14526367 C174.04293755 146.08423215 172.32825725 148.705688 169.21899414 151.14526367 C163.7986956 153.90523174 159.5997899 154.5779671 153.5657959 154.5262146 C152.29628987 154.53323456 152.29628987 154.53323456 151.00113726 154.54039633 C148.17841231 154.55231778 145.35617542 154.54290028 142.53344727 154.53344727 C140.50438657 154.53751423 138.4753281 154.54285681 136.4462738 154.54937744 C130.94427232 154.56304192 125.4424398 154.55775591 119.94043541 154.54824018 C114.17948327 154.54063914 108.41854549 154.54769044 102.65759277 154.55239868 C92.98353481 154.55785492 83.30954558 154.55066803 73.63549805 154.53637695 C62.4547584 154.52005073 51.27418288 154.52533933 40.09344721 154.54185617 C30.48986485 154.55547473 20.88633187 154.55738887 11.28274298 154.54954016 C5.54870253 154.54486571 -0.18526079 154.54423261 -5.91929626 154.55414963 C-11.31034456 154.56282235 -16.70118147 154.55679162 -22.09220695 154.53946686 C-24.06948941 154.53550368 -26.04678968 154.53663317 -28.02406502 154.54325485 C-30.72555187 154.55146701 -33.42636363 154.54115271 -36.12780762 154.5262146 C-36.90806919 154.53290676 -37.68833076 154.53959893 -38.49223661 154.54649389 C-44.72822184 154.47972677 -49.4158155 153.15567547 -54.28100586 149.02026367 C-56.43795571 144.8861098 -55.9549939 141.57665516 -54.78100586 137.14526367 C-53.34350586 134.58276367 -53.34350586 134.58276367 -51.78100586 133.14526367 C-51.12100586 133.14526367 -50.46100586 133.14526367 -49.78100586 133.14526367 C-49.78100586 132.48526367 -49.78100586 131.82526367 -49.78100586 131.14526367 C-46.16233027 129.93903848 -42.85594335 130.0370945 -39.09350586 130.08276367 C-38.39161133 130.08727539 -37.6897168 130.09178711 -36.96655273 130.09643555 C-35.23800048 130.10819441 -33.5094922 130.12612914 -31.78100586 130.14526367 C-31.78377124 129.52203909 -31.78653662 128.89881451 -31.7893858 128.25670433 C-31.85567688 113.08304472 -31.9053016 97.90942962 -31.93644238 82.73566246 C-31.95190261 75.39769664 -31.97297591 68.05982755 -32.00732422 60.72192383 C-32.03725251 54.32522027 -32.056587 47.9285868 -32.06327134 41.53181517 C-32.06717783 38.14563739 -32.07634076 34.75966006 -32.09819603 31.3735466 C-32.11994711 27.590788 -32.12297366 23.80844576 -32.12158203 20.02563477 C-32.13236786 18.90641632 -32.14315369 17.78719788 -32.15426636 16.63406372 C-32.13217872 11.09192696 -32.04784544 6.87116374 -28.78100586 2.14526367 C-20.76446659 -1.86300596 -8.82644492 -0.00341116 0 0 Z " fill="#FAFAFA" transform="translate(253.781005859375,424.854736328125)"/>
<path d="M0 0 C1.5616158 -0.00299812 3.12323086 -0.00640213 4.68484497 -0.01017761 C8.89300965 -0.01894735 13.10115395 -0.02135251 17.30932689 -0.0219934 C19.94082965 -0.02270697 22.57232732 -0.02484691 25.20382881 -0.02749062 C34.38963269 -0.03671498 43.57542212 -0.04082844 52.76123047 -0.04003906 C61.31888748 -0.03943641 69.87648184 -0.05003222 78.43412298 -0.06578273 C85.79400966 -0.07884552 93.15387579 -0.08422362 100.51377398 -0.08358365 C104.90458519 -0.08332865 109.29534043 -0.08618243 113.68614006 -0.0967617 C117.80744907 -0.10642346 121.92864827 -0.10653518 126.04996109 -0.09924507 C127.56248319 -0.0981974 129.07501208 -0.10057289 130.58752251 -0.10660553 C132.65039225 -0.11430166 134.71288029 -0.10969706 136.77574158 -0.10197449 C138.50756133 -0.10279164 138.50756133 -0.10279164 140.27436733 -0.1036253 C143.19046797 0.14285255 144.81934946 0.50649012 147.21899414 2.14526367 C150.86852242 8.22766047 150.62729003 14.10153992 150.55957031 21.04736328 C150.56000839 22.2285675 150.56044647 23.40977173 150.56089783 24.62677002 C150.55917252 27.84748567 150.54418278 31.06780442 150.52317595 34.28844142 C150.50435391 37.66099095 150.50265438 41.03354924 150.49909973 44.40614319 C150.48979542 50.78440026 150.46520371 57.16250208 150.43505126 63.54069096 C150.40145679 70.80550568 150.3850086 78.07032802 150.36996496 85.33520114 C150.33865255 100.27197498 150.28592372 115.20860376 150.21899414 130.14526367 C151.24379883 130.11045898 152.26860352 130.0756543 153.32446289 130.03979492 C154.6851235 130.01164332 156.04580194 129.98434464 157.40649414 129.95776367 C158.0800293 129.93262695 158.75356445 129.90749023 159.44750977 129.8815918 C163.93740991 129.81588594 166.65615723 130.39568301 170.21899414 133.14526367 C172.69959246 136.16220757 174.05999609 138.29727409 174.78149414 142.14526367 C174.04293755 146.08423215 172.32825725 148.705688 169.21899414 151.14526367 C163.7986956 153.90523174 159.5997899 154.5779671 153.5657959 154.5262146 C152.29628987 154.53323456 152.29628987 154.53323456 151.00113726 154.54039633 C148.17841231 154.55231778 145.35617542 154.54290028 142.53344727 154.53344727 C140.50438657 154.53751423 138.4753281 154.54285681 136.4462738 154.54937744 C130.94427232 154.56304192 125.4424398 154.55775591 119.94043541 154.54824018 C114.17948327 154.54063914 108.41854549 154.54769044 102.65759277 154.55239868 C92.98353481 154.55785492 83.30954558 154.55066803 73.63549805 154.53637695 C62.4547584 154.52005073 51.27418288 154.52533933 40.09344721 154.54185617 C30.48986485 154.55547473 20.88633187 154.55738887 11.28274298 154.54954016 C5.54870253 154.54486571 -0.18526079 154.54423261 -5.91929626 154.55414963 C-11.31034456 154.56282235 -16.70118147 154.55679162 -22.09220695 154.53946686 C-24.06948941 154.53550368 -26.04678968 154.53663317 -28.02406502 154.54325485 C-30.72555187 154.55146701 -33.42636363 154.54115271 -36.12780762 154.5262146 C-36.90806919 154.53290676 -37.68833076 154.53959893 -38.49223661 154.54649389 C-44.72822184 154.47972677 -49.4158155 153.15567547 -54.28100586 149.02026367 C-56.43795571 144.8861098 -55.9549939 141.57665516 -54.78100586 137.14526367 C-53.34350586 134.58276367 -53.34350586 134.58276367 -51.78100586 133.14526367 C-51.12100586 133.14526367 -50.46100586 133.14526367 -49.78100586 133.14526367 C-49.78100586 132.48526367 -49.78100586 131.82526367 -49.78100586 131.14526367 C-46.16233027 129.93903848 -42.85594335 130.0370945 -39.09350586 130.08276367 C-38.39161133 130.08727539 -37.6897168 130.09178711 -36.96655273 130.09643555 C-35.23800048 130.10819441 -33.5094922 130.12612914 -31.78100586 130.14526367 C-31.78377124 129.52203909 -31.78653662 128.89881451 -31.7893858 128.25670433 C-31.85567688 113.08304472 -31.9053016 97.90942962 -31.93644238 82.73566246 C-31.95190261 75.39769664 -31.97297591 68.05982755 -32.00732422 60.72192383 C-32.03725251 54.32522027 -32.056587 47.9285868 -32.06327134 41.53181517 C-32.06717783 38.14563739 -32.07634076 34.75966006 -32.09819603 31.3735466 C-32.11994711 27.590788 -32.12297366 23.80844576 -32.12158203 20.02563477 C-32.13236786 18.90641632 -32.14315369 17.78719788 -32.15426636 16.63406372 C-32.13217872 11.09192696 -32.04784544 6.87116374 -28.78100586 2.14526367 C-20.76446659 -1.86300596 -8.82644492 -0.00341116 0 0 Z M-23.78100586 8.14526367 C-23.78100586 48.07526367 -23.78100586 88.00526367 -23.78100586 129.14526367 C30.99899414 129.14526367 85.77899414 129.14526367 142.21899414 129.14526367 C142.21899414 89.21526367 142.21899414 49.28526367 142.21899414 8.14526367 C87.43899414 8.14526367 32.65899414 8.14526367 -23.78100586 8.14526367 Z " fill="#222222" transform="translate(253.781005859375,424.854736328125)"/>
<path d="M0 0 C18.94193665 -2.36683176 18.94193665 -2.36683176 25.22021484 1.29492188 C29.07428239 4.68482433 31.93153357 8.78707219 34.72119141 13.06835938 C36.48224201 15.72842666 38.50385675 18.12856426 40.5625 20.5625 C41.26503906 21.43003906 41.96757813 22.29757812 42.69140625 23.19140625 C45.41344091 26.5029848 48.20139731 29.75313059 51 33 C55.29977994 37.98936093 59.50485562 43.04221344 63.65625 48.15625 C66.39302049 51.47686486 69.1910295 54.74046782 72 58 C76.28950742 62.97754872 80.48662461 68.01659028 84.625 73.12109375 C88.05081276 77.27376482 91.57082028 81.34429579 95.10351562 85.40625 C98.89389436 89.78778872 98.89389436 89.78778872 100 92 C100.33 61.64 100.66 31.28 101 0 C106.94 0 112.88 0 119 0 C119 40.26 119 80.52 119 122 C101 122 101 122 95.4375 117.1875 C93.91673009 115.1554815 92.43667468 113.09232076 91 111 C89.53539322 109.19641179 88.05631379 107.40447291 86.5625 105.625 C85.83160156 104.72007812 85.10070313 103.81515625 84.34765625 102.8828125 C81.77184764 99.71983953 79.14294778 96.60682328 76.5 93.5 C72.37869662 88.65065425 68.33008057 83.7483847 64.3125 78.8125 C61.73853532 75.68200241 59.12427006 72.58830952 56.5 69.5 C53.10883951 65.50836427 49.74864834 61.49613862 46.4375 57.4375 C41.66627612 51.59107073 36.83096707 45.79716048 32 40 C31.67 67.06 31.34 94.12 31 122 C25.06 122 19.12 122 13 122 C13.01411926 120.7053331 13.02823853 119.4106662 13.04278564 118.07676697 C13.16850173 105.82274545 13.23018189 93.56981552 13.23059464 81.31513119 C13.2328264 75.0159318 13.25691981 68.71845773 13.33251953 62.41967773 C13.4047726 56.33057994 13.41758112 50.24388974 13.39070892 44.15445137 C13.3906535 41.84177771 13.4113325 39.52899951 13.4539566 37.21671867 C13.6787386 24.22585675 13.3038161 15.02460495 4.19797134 5.16455746 C2.81723774 3.75787995 1.41115467 2.37615748 0 1 C0 0.67 0 0.34 0 0 Z " fill="#131313" transform="translate(1003,382)"/>
<path d="M0 0 C6.65279844 -0.05101786 13.30554577 -0.0858662 19.95849609 -0.10986328 C22.2182809 -0.11987519 24.4780529 -0.13348872 26.73779297 -0.15087891 C29.99970678 -0.17533966 33.26144819 -0.18653153 36.5234375 -0.1953125 C38.02093033 -0.21079636 38.02093033 -0.21079636 39.54867554 -0.22659302 C52.92090784 -0.22869669 63.69055411 2.82865459 73.75 12 C83.81870352 22.64819724 86.59813123 35.210539 86.34375 49.41015625 C86.0370367 55.63771417 83.99404114 60.58221128 81 66 C80.55398438 66.88171875 80.10796875 67.7634375 79.6484375 68.671875 C74.7236711 77.75105327 68.07633557 83.76793655 58.359375 87.30859375 C52.81612199 88.93302385 47.71790279 89.13360544 41.98046875 89.09765625 C41.21883423 89.09664917 40.45719971 89.09564209 39.67248535 89.09460449 C36.84414145 89.08939679 34.01581911 89.07543561 31.1875 89.0625 C24.855625 89.041875 18.52375 89.02125 12 89 C12 64.25 12 39.5 12 14 C9.69 14 7.38 14 5 14 C4.15973604 12.23244474 3.32801278 10.46082737 2.5 8.6875 C2.0359375 7.70136719 1.571875 6.71523438 1.09375 5.69921875 C0 3 0 3 0 0 Z " fill="#181818" transform="translate(819,534)"/>
<path d="M0 0 C2.20887869 1.78871155 4.18603305 3.69975478 6.15625 5.74609375 C4.64071596 9.22384554 2.5789044 11.70189215 0.03125 14.49609375 C-0.69320312 15.2953125 -1.41765625 16.09453125 -2.1640625 16.91796875 C-2.71835937 17.52125 -3.27265625 18.12453125 -3.84375 18.74609375 C-7.28838128 17.48366344 -10.06534636 16.01900896 -13.03125 13.87109375 C-24.6774552 5.9190104 -37.27370238 4.35125696 -51.0703125 6.171875 C-62.96767427 8.73027865 -73.42054587 15.13818653 -80.4921875 25.05859375 C-88.03138511 36.82709734 -89.43275304 49.0095867 -87.41015625 62.67578125 C-84.36486971 74.51646059 -76.28131671 84.34046387 -65.8828125 90.5 C-52.54740724 97.4700166 -39.27286868 98.91529057 -24.5703125 94.734375 C-20.36309014 93.20940758 -16.57199462 91.21154584 -12.84375 88.74609375 C-12.15635742 88.32996826 -11.46896484 87.91384277 -10.76074219 87.48510742 C-8.64193304 85.89510646 -8.64193304 85.89510646 -8.29785156 83.38598633 C-8.2769043 82.48001709 -8.25595703 81.57404785 -8.234375 80.640625 C-8.20214844 79.65771484 -8.16992188 78.67480469 -8.13671875 77.66210938 C-8.12253906 76.63794922 -8.10835937 75.61378906 -8.09375 74.55859375 C-8.06410156 73.52283203 -8.03445313 72.48707031 -8.00390625 71.41992188 C-7.93319135 68.86239958 -7.88620888 66.30424115 -7.84375 63.74609375 C-13.12375 63.74609375 -18.40375 63.74609375 -23.84375 63.74609375 C-26.92746503 57.71273826 -29.69829164 52.18246884 -31.84375 45.74609375 C-18.31375 45.74609375 -4.78375 45.74609375 9.15625 45.74609375 C9.36345812 52.58140352 9.54236433 59.40574457 9.65063477 66.24169922 C9.69577384 68.56401562 9.75710326 70.88607793 9.83520508 73.20751953 C9.94494894 76.5543488 9.99553939 79.89778781 10.03515625 83.24609375 C10.08160782 84.27661865 10.12805939 85.30714355 10.17591858 86.36889648 C10.17899814 90.81040118 10.06317422 93.6201879 7.21647644 97.15423584 C4.94843377 99.20070616 2.66669892 101.00850393 0.15625 102.74609375 C-0.75728241 103.38638519 -0.75728241 103.38638519 -1.68927002 104.03961182 C-17.61833973 114.47914323 -34.5013316 117.5342544 -53.1953125 115.35546875 C-65.92043889 112.62114407 -78.41373525 105.59661039 -87.84375 96.74609375 C-88.46378906 96.17890625 -89.08382812 95.61171875 -89.72265625 95.02734375 C-95.83288715 88.79408807 -99.27274928 80.60229532 -102.84375 72.74609375 C-103.22917969 71.90433594 -103.61460937 71.06257813 -104.01171875 70.1953125 C-108.55497476 56.82150256 -107.58815622 37.56649362 -101.84375 24.74609375 C-92.96390294 7.41445868 -78.48901886 -5.22907448 -59.84375 -11.25390625 C-59.18890625 -11.47820312 -58.5340625 -11.7025 -57.859375 -11.93359375 C-38.33451192 -17.45807051 -16.03014242 -11.56841945 0 0 Z " fill="#131313" transform="translate(829.84375,391.25390625)"/>
<path d="M0 0 C0.83217041 0.00491455 1.66434082 0.0098291 2.52172852 0.01489258 C8.95425213 0.13711241 14.58867189 1.00585998 20.625 3.3125 C21.59566406 3.6528125 22.56632813 3.993125 23.56640625 4.34375 C32.29162868 7.64217381 40.17582968 12.50386772 46.625 19.3125 C45.10946596 22.79025179 43.0476544 25.2682984 40.5 28.0625 C39.77554688 28.86171875 39.05109375 29.6609375 38.3046875 30.484375 C37.75039063 31.08765625 37.19609375 31.6909375 36.625 32.3125 C33.18036872 31.05006969 30.40340364 29.58541521 27.4375 27.4375 C16.32428377 19.87459578 3.30824139 17.41397216 -9.96875 19.7734375 C-16.54646145 21.68818227 -20.90701553 25.44645351 -25.3125 30.5625 C-26.95822193 34.8220156 -27.15257341 38.81738512 -26.375 43.3125 C-22.74482109 48.48275481 -17.61469243 50.67135112 -11.50927734 51.87963867 C-8.52315588 52.29203884 -5.67602829 52.45299866 -2.6640625 52.48828125 C33.59175048 53.19367905 33.59175048 53.19367905 45.45703125 65.16015625 C52.49819675 73.77744639 53.70276184 83.52268626 52.88378906 94.34960938 C51.68253802 103.4609852 46.72754285 111.14823465 39.734375 116.85546875 C24.23648618 128.01968866 5.2566844 131.46454666 -13.49609375 128.8828125 C-28.99961774 125.547393 -41.64074657 116.66802855 -52.375 105.3125 C-50.82497253 101.42852311 -48.37023379 99.28270381 -45.25 96.5625 C-44.33992188 95.76328125 -43.42984375 94.9640625 -42.4921875 94.140625 C-41.79351562 93.53734375 -41.09484375 92.9340625 -40.375 92.3125 C-39.42625 93.158125 -38.4775 94.00375 -37.5 94.875 C-23.32114125 106.96705091 -10.95097884 111.74112201 7.625 110.3125 C17.28333921 108.9181623 25.63589261 105.54820345 31.625 97.6875 C33.50854076 91.33054993 33.72215329 84.98382975 31.1875 78.8125 C25.12361911 72.89651864 17.3525901 71.22681668 9.12890625 71.1015625 C7.84693359 71.07320313 6.56496094 71.04484375 5.24414062 71.015625 C2.57482224 70.96153677 -0.09398308 70.91976321 -2.76367188 70.8828125 C-14.95800809 70.59116918 -26.05869448 69.1611398 -36.375 62.3125 C-37.2825 61.755625 -38.19 61.19875 -39.125 60.625 C-44.21453454 55.3940895 -46.97951637 48.56303314 -47.375 41.3125 C-47.436875 40.62671875 -47.49875 39.9409375 -47.5625 39.234375 C-48.08207196 29.9470262 -44.17740528 22.44010956 -38.35546875 15.4140625 C-27.87087084 4.2883945 -15.04044323 -0.10614612 0 0 Z " fill="#141414" transform="translate(530.375,377.6875)"/>
<path d="M0 0 C28.71 0 57.42 0 87 0 C87 6.27 87 12.54 87 19 C64.23 19 41.46 19 18 19 C18 30.88 18 42.76 18 55 C22.29 53.68 26.58 52.36 31 51 C34.26358758 50.69583239 37.13490322 50.51957798 40.36328125 50.609375 C41.16614059 50.61503479 41.96899994 50.62069458 42.79618835 50.62652588 C45.30229451 50.64850215 47.8068435 50.69861186 50.3125 50.75 C52.0357863 50.77011555 53.75909554 50.7883573 55.48242188 50.8046875 C59.6559961 50.84479874 63.82630457 50.92314423 68 51 C68 56.94 68 62.88 68 69 C65.44507813 69.03738281 62.89015625 69.07476562 60.2578125 69.11328125 C57.75219716 69.15964261 55.24672265 69.21082273 52.74121094 69.26245117 C51.0150628 69.29547286 49.28881259 69.32357375 47.5625 69.34643555 C32.85802397 69.45767681 32.85802397 69.45767681 19 74 C18.67 84.23 18.34 94.46 18 105 C43.08 105 68.16 105 94 105 C94 110.94 94 116.88 94 123 C62.98 123 31.96 123 0 123 C0 82.41 0 41.82 0 0 Z " fill="#161616" transform="translate(609,381)"/>
<path d="M0 0 C5.94 0 11.88 0 18 0 C18.0093457 2.49747803 18.01869141 4.99495605 18.02832031 7.56811523 C18.06216714 15.8423622 18.11775887 24.11636179 18.18390274 32.39041042 C18.22332333 37.40441081 18.25553837 42.41823699 18.27099609 47.43237305 C18.28619837 52.2760851 18.3207072 57.11931807 18.36830902 61.96281624 C18.38308605 63.80582566 18.39103889 65.6489035 18.39188385 67.49197197 C18.17336658 80.817869 18.17336658 80.817869 23 93 C23.556875 94.0725 24.11375 95.145 24.6875 96.25 C30.02072264 102.59221071 39.15651722 106.22878208 47.2956543 107.30297852 C49.62260862 107.43613934 51.91951532 107.46784423 54.25 107.4375 C55.07411377 107.42992676 55.89822754 107.42235352 56.74731445 107.41455078 C66.06781431 107.16581045 75.95793116 105.36597663 83.15036011 98.97894287 C92.26619824 89.22584284 91.87203795 77.69778116 91.8046875 65.234375 C91.81595697 63.34578773 91.82984599 61.45721445 91.84622192 59.56866455 C91.88204745 54.63668698 91.88266053 49.70533198 91.87554932 44.77325439 C91.87463207 39.72502722 91.90755641 34.677028 91.9375 29.62890625 C91.99116272 19.7524653 92.00443464 9.87658588 92 0 C97.94 0 103.88 0 110 0 C110.04527836 10.79680012 110.08193203 21.59353664 110.10362434 32.39041042 C110.11403828 37.404434 110.12815368 42.41838895 110.15087891 47.43237305 C110.1726927 52.27586093 110.18458659 57.11928301 110.18975449 61.96281624 C110.19343496 63.80587868 110.20062183 65.64893773 110.21146011 67.49197197 C110.22608864 70.08383699 110.22797323 72.67543398 110.22705078 75.26733398 C110.23424133 76.02043854 110.24143188 76.77354309 110.24884033 77.54946899 C110.19783837 90.89040505 105.64254534 103.26439218 96.3203125 112.87890625 C82.73938025 125.29379886 65.06852093 126.78578091 47.50585938 126.14355469 C33.44256126 125.33790199 20.2281908 119.69715504 10.4921875 109.40625 C2.63944298 100.09344745 -0.1692853 87.62453623 -0.11352539 75.72143555 C-0.11367142 74.90140549 -0.11381744 74.08137543 -0.1139679 73.23649597 C-0.1132734 70.53654296 -0.1055027 67.83665965 -0.09765625 65.13671875 C-0.09579043 63.26056455 -0.0943673 61.38440987 -0.09336853 59.508255 C-0.0895563 54.577979 -0.07973707 49.6477326 -0.06866455 44.71746826 C-0.05842259 39.68339437 -0.05386494 34.64931569 -0.04882812 29.61523438 C-0.03811363 19.7434745 -0.02052732 9.87174435 0 0 Z " fill="#151515" transform="translate(868,381)"/>
<path d="M0 0 C54.78 0 109.56 0 166 0 C166 39.93 166 79.86 166 121 C111.22 121 56.44 121 0 121 C0 81.07 0 41.14 0 0 Z M7 11 C5.3164436 14.36711281 5.82516877 18.17951615 5.80712891 21.88427734 C5.79895142 22.80473343 5.79077393 23.72518951 5.78234863 24.67353821 C5.75748103 27.72766463 5.74097672 30.78174459 5.7265625 33.8359375 C5.72123882 34.87720417 5.71591515 35.91847084 5.71043015 36.99129105 C5.68369493 42.50069697 5.66431963 48.01008017 5.64990234 53.51953125 C5.63323714 59.21852341 5.5884445 64.91693922 5.5375309 70.61571312 C5.50392884 74.99084156 5.49233273 79.36583189 5.48667526 83.74107742 C5.47994523 85.84229573 5.46467803 87.9435044 5.44078445 90.04459763 C5.40927597 92.98252584 5.40907443 95.91888181 5.41650391 98.85693359 C5.40009857 99.72773056 5.38369324 100.59852753 5.36679077 101.49571228 C5.37510925 102.29766525 5.38342773 103.09961823 5.39199829 103.9258728 C5.38868814 104.62015066 5.385378 105.31442852 5.38196754 106.0297451 C6.37354296 109.19083528 8.2510728 110.27437189 11 112 C13.83682172 112.59714759 13.83682172 112.59714759 16.9138031 112.5146637 C18.69070023 112.53375038 18.69070023 112.53375038 20.50349426 112.55322266 C22.44007149 112.54343384 22.44007149 112.54343384 24.41577148 112.53344727 C25.79592816 112.5405084 27.17607708 112.54925424 28.55621338 112.55955505 C32.29806349 112.58203821 36.03949042 112.57911195 39.78138232 112.57023358 C42.90763973 112.56511961 46.0338179 112.5724196 49.16006714 112.57970566 C56.5365509 112.59670142 63.91282778 112.59314239 71.28930664 112.57641602 C78.89381826 112.55949529 86.49775582 112.57532883 94.10220474 112.6076389 C100.63657099 112.63434833 107.17075868 112.64160718 113.70517403 112.63312382 C117.60551923 112.62819841 121.50551909 112.6303888 125.40582085 112.65091133 C129.07424254 112.66929006 132.7418397 112.66328433 136.41021729 112.63871193 C138.39381186 112.63133059 140.37745046 112.64854272 142.36097717 112.66653442 C149.44052326 112.72305535 149.44052326 112.72305535 155.79904175 110.02464294 C158.79656032 105.90533564 158.84149525 102.95727564 158.76049805 97.97460938 C158.76940567 97.07482864 158.77831329 96.17504791 158.78749084 95.2480011 C158.80876935 92.27917569 158.78646938 89.31252196 158.76171875 86.34375 C158.76322124 84.27778909 158.76665143 82.21182875 158.77192688 80.14587402 C158.77625834 75.81815202 158.75941981 71.49117515 158.72729492 67.16357422 C158.68751403 61.61815813 158.69681347 56.07413929 158.72152996 50.52867889 C158.73571694 46.26320964 158.72562315 41.99806642 158.70801735 37.73262024 C158.70216991 35.68810301 158.7034664 33.6435524 158.71204185 31.5990448 C158.720039 28.74040671 158.69577848 25.88381148 158.6628418 23.02539062 C158.67139191 22.18160355 158.67994202 21.33781647 158.68875122 20.46846008 C158.6120543 16.60919151 158.21709481 14.38606593 156.29804993 10.97337341 C150.97244666 7.78682253 145.65677498 8.33076339 139.56835938 8.40063477 C138.18658508 8.39876995 136.80481226 8.39473168 135.42304993 8.38868713 C131.6769728 8.37871912 127.93165332 8.39987127 124.18568611 8.42716718 C120.26292523 8.45101773 116.34017886 8.4480524 112.4173584 8.44847107 C105.83002925 8.45309789 99.24298929 8.47673046 92.65576172 8.51293945 C85.04343908 8.55467227 77.43137683 8.5722544 69.81894636 8.5755592 C61.7099069 8.57916126 53.60096093 8.59803998 45.49196053 8.62267947 C43.15745633 8.62890303 40.82295925 8.63254255 38.4884491 8.63571358 C34.81777015 8.64162295 31.14727646 8.65796037 27.47667503 8.68231773 C25.48934289 8.69328508 23.5019648 8.69459576 21.51460266 8.69561768 C19.7355378 8.71058037 19.7355378 8.71058037 17.92053223 8.72584534 C16.8918528 8.73049584 15.86317337 8.73514635 14.80332184 8.73993778 C11.82700254 9.01604885 9.6628366 9.65445422 7 11 Z " fill="#FAFAFA" transform="translate(230,433)"/>
<path d="M0 0 C7.693125 -0.061875 15.38625 -0.12375 23.3125 -0.1875 C25.71829346 -0.21481201 28.12408691 -0.24212402 30.6027832 -0.27026367 C32.54377747 -0.27903858 34.48477733 -0.28668013 36.42578125 -0.29296875 C37.89597717 -0.3159906 37.89597717 -0.3159906 39.39587402 -0.33947754 C48.38585348 -0.34282659 58.030129 0.85987554 65 7 C71.1838134 15.32371613 72.34438183 23.84664438 71 34 C68.41534149 41.74411041 63.11692062 46.32631336 56 50 C52.63703634 51.12098789 50.00480726 51.15836069 46.4609375 51.2109375 C44.50607422 51.25347656 44.50607422 51.25347656 42.51171875 51.296875 C40.45166738 51.33787105 38.39183334 51.3747828 36.33154297 51.40136719 C34.33278949 51.42934877 32.33433046 51.47627778 30.3359375 51.5234375 C29.14532715 51.54325684 27.9547168 51.56307617 26.72802734 51.58349609 C22.02175775 51.97784954 22.02175775 51.97784954 14 55 C13.67 66.22 13.34 77.44 13 89 C8.71 89 4.42 89 0 89 C0 59.63 0 30.26 0 0 Z " fill="#151515" transform="translate(964,534)"/>
<path d="M0 0 C4.62 0 9.24 0 14 0 C23.28040401 19.50648484 32.5552202 39.0154733 41.75 58.5625 C42.06912354 59.24076843 42.38824707 59.91903687 42.71704102 60.61785889 C44.51336583 64.43662177 46.30680948 68.25672161 48.09790039 72.07794189 C49.06511279 74.13873254 50.03547244 76.19802668 51.00585938 78.25732422 C51.65502893 79.63895933 52.30411994 81.02063136 52.953125 82.40234375 C53.25909607 83.04998184 53.56506714 83.69761993 53.88031006 84.36488342 C56 88.88650254 56 88.88650254 56 90 C51.05 90 46.1 90 41 90 C36 79.25 36 79.25 36 77 C31.23470624 77.06967029 26.47022495 77.1580007 21.70556641 77.26245117 C20.09009949 77.29537727 18.47452644 77.3235058 16.85888672 77.34643555 C-1.23502886 77.279855 -1.23502886 77.279855 -17 85 C-17.39703125 85.86238281 -17.7940625 86.72476563 -18.203125 87.61328125 C-20 90 -20 90 -23.35546875 90.48828125 C-24.62003906 90.43027344 -25.88460938 90.37226562 -27.1875 90.3125 C-28.45980469 90.26738281 -29.73210937 90.22226562 -31.04296875 90.17578125 C-32.01878906 90.11777344 -32.99460937 90.05976562 -34 90 C-31.56118945 81.66815282 -27.74035616 74.14184802 -23.8125 66.4375 C-23.12960676 65.08689254 -22.4473183 63.73597913 -21.765625 62.38476562 C-20.4373102 59.75356346 -19.10611516 57.12385737 -17.77197266 54.49560547 C-15.66472384 50.33859409 -13.57804696 46.17166182 -11.5 42 C-9.71642049 38.42285559 -7.92587279 34.84962105 -6.109375 31.2890625 C0.68534176 20.00352562 0.68534176 20.00352562 2.3125 7.6875 C1.879375 6.800625 1.44625 5.91375 1 5 C0.505 2.525 0.505 2.525 0 0 Z " fill="#161616" transform="translate(512,533)"/>
<path d="M0 0 C1.77494087 -0.0129007 1.77494087 -0.0129007 3.58573914 -0.02606201 C4.88555222 -0.03032196 6.1853653 -0.03458191 7.52456665 -0.03897095 C8.90604355 -0.04687375 10.2875184 -0.05514281 11.66899109 -0.06375122 C16.20627884 -0.08994494 20.74357572 -0.10527354 25.28091431 -0.11953735 C26.84313589 -0.12489762 28.40535742 -0.13027513 29.96757889 -0.13566971 C36.46493162 -0.15729217 42.96228189 -0.17602981 49.45966148 -0.1872921 C58.77141 -0.20353936 68.08274182 -0.23674275 77.39433324 -0.29369295 C83.94218847 -0.3323757 90.48993215 -0.35192263 97.03789866 -0.35721266 C100.94892096 -0.3608677 104.85949854 -0.37290473 108.77039719 -0.4053154 C112.44937577 -0.4353683 116.1276399 -0.44171843 119.80671501 -0.42993164 C121.79893042 -0.42960539 123.79110156 -0.45408819 125.78315735 -0.47930908 C134.36095391 -0.41929375 134.36095391 -0.41929375 138.62001038 2.12628174 C140.93989606 6.25796838 141.03015291 9.50799658 140.9828186 14.17929077 C140.99318649 15.0790715 141.00355438 15.97885223 141.01423645 16.90589905 C141.04129843 19.87444925 141.03164714 22.84152134 141.01919556 25.81015015 C141.02510433 27.876113 141.03235099 29.94207242 141.0408783 32.00802612 C141.05275737 36.33564101 141.04605225 40.66274154 141.02676392 44.99032593 C141.00387164 50.53585192 141.03066124 56.07984631 141.07182598 61.62522125 C141.09740123 65.89068006 141.09482491 70.15577223 141.08393288 74.42127991 C141.08244597 76.4658192 141.09013873 78.51038656 141.10718346 80.55485535 C141.12714932 83.41368523 141.10877538 86.26980462 141.08047485 89.12850952 C141.1010495 90.39419014 141.1010495 90.39419014 141.12203979 91.68544006 C141.03944747 95.8602898 140.63360598 97.72289866 138.11901855 101.17854309 C133.0732201 104.63697574 126.62808899 103.83809618 120.77481079 103.78500366 C119.39288414 103.79014608 118.01096405 103.79742979 116.62905884 103.8066864 C112.88721406 103.82516651 109.14608381 103.81228471 105.40426898 103.7925961 C101.48416008 103.77618316 97.56409549 103.78502601 93.64396667 103.79011536 C87.06262832 103.79463285 80.4815745 103.77878674 73.90029907 103.75082397 C66.29523215 103.71876011 58.69067796 103.71879395 51.08557457 103.73603874 C43.76311603 103.75190981 36.44084519 103.74516747 29.11839485 103.72810173 C26.00483252 103.72123552 22.89142083 103.72225915 19.77786064 103.72964668 C16.11113259 103.73731574 12.44498719 103.72516411 8.77835846 103.69779778 C6.79341954 103.68764247 4.80841061 103.69708953 2.82347107 103.7071228 C1.04657394 103.68803612 1.04657394 103.68803612 -0.76622009 103.66856384 C-2.30729101 103.66435346 -2.30729101 103.66435346 -3.87949467 103.66005802 C-7.46979984 103.01115864 -9.14736041 101.74822933 -11.68002319 99.15390015 C-12.30364227 97.18643856 -12.30364227 97.18643856 -12.30148315 95.08650208 C-12.31269196 94.28599426 -12.32390076 93.48548645 -12.33544922 92.66072083 C-12.32218597 91.7914949 -12.30892273 90.92226898 -12.29525757 90.02670288 C-12.30080658 89.10434845 -12.30635559 88.18199402 -12.31207275 87.23168945 C-12.32388318 84.18309574 -12.29958127 81.13598362 -12.27377319 78.0874939 C-12.27206256 75.97047493 -12.27212729 73.85345385 -12.27389526 71.73643494 C-12.27224128 67.30026988 -12.25352691 62.86460971 -12.22201538 58.42855835 C-12.18231355 52.73633312 -12.17797245 47.04476872 -12.18547821 41.3524313 C-12.18854435 36.98158186 -12.17644044 32.61088159 -12.15934753 28.24006844 C-12.15230642 26.14086912 -12.14919434 24.04165289 -12.15003967 21.94244194 C-12.14824634 19.0118833 -12.12690495 16.08212374 -12.09994507 13.15170288 C-12.10287567 12.28045273 -12.10580627 11.40920258 -12.10882568 10.5115509 C-12.02453934 4.58772413 -12.02453934 4.58772413 -10.34287262 2.47012424 C-7.09875028 -0.09775228 -3.9701202 0.02146745 0 0 Z M-4.68002319 7.15390015 C-4.70064819 21.48827515 -4.72127319 35.82265015 -4.74252319 50.59140015 C-4.7516272 55.12430786 -4.7607312 59.65721558 -4.77011108 64.32748413 C-4.77345468 68.37638054 -4.77345468 68.37638054 -4.77546692 72.42527771 C-4.7770066 74.23440293 -4.78053202 76.0435271 -4.78559875 77.85264587 C-4.79287519 80.58646438 -4.79393065 83.32021995 -4.79354858 86.05404663 C-4.79714669 86.86549605 -4.8007448 87.67694548 -4.80445194 88.51298428 C-5.13960745 92.13112864 -5.13960745 92.13112864 -3.68002319 95.15390015 C-1.92108889 95.2502206 -0.15825161 95.27577524 1.60331726 95.27415466 C3.32186668 95.27621666 3.32186668 95.27621666 5.07513428 95.27832031 C6.34323944 95.27472504 7.6113446 95.27112976 8.9178772 95.26742554 C10.25790912 95.26714366 11.59794119 95.2673014 12.93797302 95.26786804 C16.58657119 95.26815601 20.23513675 95.26225935 23.88372731 95.25529408 C27.69275197 95.24906049 31.5017773 95.24845674 35.31080627 95.24726868 C42.52855435 95.24415538 49.74628735 95.23594201 56.96402878 95.22591919 C66.71396654 95.21267275 76.4639084 95.20725813 86.21385288 95.20141697 C101.58257216 95.19200212 116.95125962 95.1720832 132.31997681 95.15390015 C132.31997681 66.11390015 132.31997681 37.07390015 132.31997681 7.15390015 C87.10997681 7.15390015 41.89997681 7.15390015 -4.68002319 7.15390015 Z " fill="#1E1E1E" transform="translate(247.68002319335938,441.8460998535156)"/>
<path d="M0 0 C14.97111466 -1.36407231 14.97111466 -1.36407231 19.30078125 1.546875 C21.06014324 3.93925805 22.49777037 6.43841505 24 9 C25.71364962 11.19333105 27.54378512 13.27952759 29.375 15.375 C30.33387462 16.49712534 31.29091578 17.62082006 32.24609375 18.74609375 C32.71257324 19.29507324 33.17905273 19.84405273 33.65966797 20.40966797 C35.61440929 22.72900949 37.52625412 25.08226234 39.4375 27.4375 C43.39146518 32.2968454 47.45760546 37.05045329 51.54736328 41.79516602 C55.36689318 46.2358123 59.09510224 50.74282154 62.76953125 55.3046875 C65.77187392 58.93273731 68.89895316 62.45594647 72 66 C72.33 44.22 72.66 22.44 73 0 C77.29 0 81.58 0 86 0 C86 29.37 86 58.74 86 89 C73 89 73 89 69.640625 86.54296875 C68.40454102 84.93774414 68.40454102 84.93774414 67.25 83.1875 C66.80648193 82.59509521 66.36296387 82.00269043 65.90600586 81.39233398 C65.00279093 80.1849736 64.11499763 78.96590985 63.24365234 77.73535156 C61.46232648 75.24974806 59.51685006 72.91333401 57.5625 70.5625 C56.48162109 69.23412109 56.48162109 69.23412109 55.37890625 67.87890625 C52.62747979 64.54918326 49.81923571 61.27229556 47 58 C41.89974782 52.07805836 36.92625099 46.06857006 32 40 C27.545 34.555 27.545 34.555 23 29 C22.67 48.47 22.34 67.94 22 88 C18.04 88 14.08 88 10 88 C10.00745743 87.07007233 10.01491486 86.14014465 10.02259827 85.18203735 C10.08723611 76.38462812 10.10410992 67.58822627 10.07515812 58.79061317 C10.06178553 54.26829788 10.06478296 49.74726938 10.10620117 45.22509766 C10.14561419 40.85426604 10.14070735 36.48545475 10.10607719 32.11460495 C10.10051194 30.45377802 10.11046522 28.79281869 10.13676643 27.1321907 C10.25824135 18.84853573 10.33515018 12.49837293 4.43139648 6.02490234 C3.60598862 5.27880707 2.78058075 4.53271179 1.93016052 3.76400757 C1.29320755 3.18188507 0.65625458 2.59976257 0 2 C0 1.34 0 0.68 0 0 Z " fill="#121212" transform="translate(714,534)"/>
<path d="M0 0 C2.14576637 -0.02685938 4.29162645 -0.04633088 6.4375 -0.0625 C7.63246094 -0.07410156 8.82742188 -0.08570313 10.05859375 -0.09765625 C13 0 13 0 14 1 C14.12363297 2.96287766 14.1779544 4.93015158 14.20532227 6.89672852 C14.22526749 8.15796036 14.24521271 9.4191922 14.26576233 10.71864319 C14.28274795 12.10539627 14.29962671 13.49215066 14.31640625 14.87890625 C14.33696926 16.2899589 14.35796555 17.70100529 14.37937927 19.11204529 C14.43466755 22.8323359 14.48404686 26.55268273 14.53222656 30.27307129 C14.58239242 34.06686425 14.63810408 37.86057523 14.69335938 41.65429688 C14.80102351 49.10279523 14.90244997 56.55136159 15 64 C15.47341324 63.30355377 15.94682648 62.60710754 16.43458557 61.88955688 C18.23201675 59.24544941 20.02955636 56.60141569 21.8271637 53.95742798 C22.59748953 52.82435908 23.36777512 51.69126281 24.13801575 50.55813599 C28.80474597 43.69282089 33.47710527 36.83141346 38.16000366 29.97711182 C43.09401391 22.75411726 48.01602236 15.52374769 52.875 8.25 C53.28613037 7.63560059 53.69726074 7.02120117 54.12084961 6.38818359 C56.19405141 3.27315926 56.19405141 3.27315926 58 0 C63.28 0 68.56 0 74 0 C74 0.66 74 1.32 74 2 C73.34 2 72.68 2 72 2 C71.77183594 2.68449219 71.54367187 3.36898437 71.30859375 4.07421875 C69.68836992 7.69674905 67.44980225 10.67386195 65.0625 13.8125 C60.92797532 19.35430131 56.87512129 24.9412842 52.9375 30.625 C52.47287354 31.28733643 52.00824707 31.94967285 51.52954102 32.63208008 C51.09569092 33.26138428 50.66184082 33.89068848 50.21484375 34.5390625 C49.83448975 35.08771973 49.45413574 35.63637695 49.06225586 36.20166016 C47.69532561 38.51579673 46.66282491 40.37259033 46 43 C47.13300175 45.82167473 47.13300175 45.82167473 49.1640625 48.5625 C49.87433594 49.60664062 50.58460938 50.65078125 51.31640625 51.7265625 C52.08569152 52.81788177 52.85522493 53.90902616 53.625 55 C54.36363281 56.08023438 55.10226562 57.16046875 55.86328125 58.2734375 C62.04416543 68.10549138 62.04416543 68.10549138 71 75 C74.69523952 75.71923208 74.69523952 75.71923208 78 76 C78 80.29 78 84.58 78 89 C66.28571429 89.28571429 66.28571429 89.28571429 61 87 C61 86.34 61 85.68 61 85 C60.12021484 84.62875 60.12021484 84.62875 59.22265625 84.25 C49.541657 78.8055013 43.46086218 64.23936803 38 55 C34.13688448 58.57784838 31.43525884 62.25904203 28.8125 66.83203125 C28.02460118 68.1388596 27.23415684 69.44415601 26.44140625 70.74804688 C25.21086795 72.78116359 23.99701476 74.81775855 22.82373047 76.88452148 C20.25584534 81.38072885 17.76332413 85.40984717 14 89 C9.43397034 90.20350418 5.58622436 90.05619779 1 89 C-0.81115624 87.18884376 -0.11995376 84.70122499 -0.12442017 82.29098511 C-0.12082489 81.47171539 -0.11722961 80.65244568 -0.11352539 79.80834961 C-0.11367142 78.94988937 -0.11381744 78.09142914 -0.1139679 77.20695496 C-0.11326847 74.35539262 -0.1054747 71.50389475 -0.09765625 68.65234375 C-0.09579218 66.68079158 -0.09436822 64.70923895 -0.09336853 62.73768616 C-0.08954251 57.53773733 -0.07971152 52.33781625 -0.06866455 47.13787842 C-0.05845222 41.83606339 -0.05387129 36.5342439 -0.04882812 31.23242188 C-0.03808933 20.82160237 -0.02101191 10.41080349 0 0 Z " fill="#181818" transform="translate(584,534)"/>
<path d="M0 0 C20.79 0 41.58 0 63 0 C63 4.29 63 8.58 63 13 C62 14 62 14 60.05747986 14.12025452 C59.20698563 14.11803391 58.35649139 14.11581329 57.48022461 14.11352539 C56.03884377 14.11341209 56.03884377 14.11341209 54.56834412 14.11329651 C53.523564 14.10813522 52.47878387 14.10297394 51.40234375 14.09765625 C50.33834854 14.0962413 49.27435333 14.09482635 48.17811584 14.09336853 C44.76454917 14.08775064 41.351047 14.07519511 37.9375 14.0625 C35.62955824 14.05748731 33.32161545 14.052924 31.01367188 14.04882812 C25.34240279 14.03862433 19.67127399 14.01905243 14 14 C14.33 22.25 14.66 30.5 15 39 C16.98 38.34 18.96 37.68 21 37 C24.25146484 36.77294922 24.25146484 36.77294922 27.7109375 36.8046875 C28.95488281 36.81113281 30.19882813 36.81757812 31.48046875 36.82421875 C32.76566406 36.84097656 34.05085938 36.85773437 35.375 36.875 C36.68339844 36.88402344 37.99179688 36.89304687 39.33984375 36.90234375 C42.55997458 36.92584835 45.78001095 36.96171744 49 37 C49 41.29 49 45.58 49 50 C47.23914062 50.04898438 45.47828125 50.09796875 43.6640625 50.1484375 C41.31769431 50.22352128 38.97134085 50.29906664 36.625 50.375 C35.46871094 50.4059375 34.31242187 50.436875 33.12109375 50.46875 C31.40986328 50.52675781 31.40986328 50.52675781 29.6640625 50.5859375 C28.62717285 50.6173584 27.5902832 50.6487793 26.52197266 50.68115234 C21.96747905 51.09347514 17.48431263 52.10313747 13 53 C13 60.59 13 68.18 13 76 C31.15 76 49.3 76 68 76 C68 80.29 68 84.58 68 89 C59.28155659 89.02255338 50.56313241 89.04091645 41.84466648 89.05181217 C37.79674258 89.05704041 33.74883959 89.06413699 29.70092773 89.07543945 C25.79764029 89.08627043 21.89437301 89.09227728 17.9910717 89.09487724 C16.49866353 89.09673111 15.00625652 89.100351 13.51385689 89.10573006 C11.43051861 89.11294331 9.34726469 89.11399083 7.26391602 89.11352539 C6.07588882 89.115746 4.88786163 89.11796661 3.66383362 89.12025452 C1 89 1 89 0 88 C-0.09516211 85.2611158 -0.12554594 82.54752059 -0.11352539 79.80834961 C-0.11367142 78.94988937 -0.11381744 78.09142914 -0.1139679 77.20695496 C-0.11326847 74.35539262 -0.1054747 71.50389475 -0.09765625 68.65234375 C-0.09579218 66.68079158 -0.09436822 64.70923895 -0.09336853 62.73768616 C-0.08954251 57.53773733 -0.07971152 52.33781625 -0.06866455 47.13787842 C-0.05665806 40.90460534 -0.05204859 34.67132301 -0.04621124 28.43804169 C-0.03649981 18.95867514 -0.01734384 9.47936951 0 0 Z " fill="#1A1A1A" transform="translate(1054,534)"/>
<path d="M0 0 C31.65517241 0 31.65517241 0 40.875 8.625 C47.51647095 17.02496917 49.21700774 26.50811225 48 37 C46.27249056 45.5460235 41.89093474 52.61585739 35 58 C25 62 25 62 0 62 C0 41.54 0 21.08 0 0 Z " fill="#FBFBFB" transform="translate(844,548)"/>
<path d="M0 0 C1.08308441 -0.00021904 1.08308441 -0.00021904 2.18804932 -0.0004425 C4.57966087 0.00025532 6.97119498 0.00804164 9.36279297 0.01586914 C11.01903236 0.01773378 12.67527231 0.01915747 14.33151245 0.02015686 C18.69465655 0.0239784 23.05776747 0.03380561 27.42089844 0.04486084 C31.87157746 0.05508275 36.32226184 0.05965615 40.77294922 0.06469727 C49.50864155 0.07542819 58.24430688 0.09250027 66.97998047 0.11352539 C67.38216797 1.07258789 67.38216797 1.07258789 67.79248047 2.05102539 C68.86665799 4.44484225 68.86665799 4.44484225 71.97998047 5.11352539 C73.62156497 5.20091438 75.26649669 5.2311916 76.91040039 5.22705078 C78.4116169 5.22693748 78.4116169 5.22693748 79.94316101 5.2268219 C81.02136612 5.22166061 82.09957123 5.21649933 83.21044922 5.21118164 C84.86878532 5.20905922 84.86878532 5.20905922 86.56062317 5.20689392 C90.09626964 5.20129053 93.63185309 5.18873744 97.16748047 5.17602539 C99.56266185 5.17101083 101.95784422 5.16644785 104.35302734 5.16235352 C110.22869994 5.15132 116.1043357 5.13457855 121.97998047 5.11352539 C122.30998047 3.46352539 122.63998047 1.81352539 122.97998047 0.11352539 C133.24571628 0.04411481 143.51139657 -0.00924025 153.77731895 -0.04191113 C158.54385013 -0.05758894 163.31022116 -0.0788656 168.07666016 -0.11279297 C172.67373867 -0.14531127 177.27066282 -0.16331167 181.86784744 -0.17110634 C183.62460385 -0.17666343 185.38135149 -0.18751464 187.13804245 -0.20366478 C189.59254174 -0.22533939 192.04639748 -0.22844578 194.50097656 -0.22705078 C195.23249435 -0.23783661 195.96401215 -0.24862244 196.71769714 -0.25973511 C198.74032593 -0.24723816 198.74032593 -0.24723816 201.97998047 0.11352539 C203.97998047 3.11352539 203.97998047 3.11352539 203.66748047 5.73852539 C202.97998047 8.11352539 202.97998047 8.11352539 201.97998047 9.11352539 C199.29125789 9.21580639 196.62807254 9.25238657 193.93873596 9.24723816 C193.08583023 9.24950372 192.23292449 9.25176927 191.35417312 9.25410348 C188.47365078 9.26047353 185.59317512 9.2596122 182.71264648 9.25878906 C180.65665628 9.26177868 178.60066663 9.26518074 176.54467773 9.26896667 C170.94353863 9.27783084 165.34241479 9.28014579 159.74126935 9.28078246 C155.07395958 9.2817295 150.40665341 9.2854054 145.73934501 9.28895456 C134.73288507 9.29710824 123.72643332 9.29953795 112.7199707 9.29882812 C101.34616035 9.29822703 89.97239738 9.30878301 78.59859902 9.32457179 C68.85085531 9.33762377 59.10312714 9.34301301 49.35537475 9.34237272 C43.52584066 9.34211704 37.69634863 9.34500614 31.8668232 9.35555077 C26.3864569 9.3651925 20.90617325 9.36533807 15.42580414 9.35803413 C13.40933296 9.35698339 11.39285675 9.35937993 9.37639427 9.36539459 C6.63356675 9.37304872 3.89102936 9.36851378 1.14820862 9.36076355 C0.34150823 9.36590711 -0.46519216 9.37105068 -1.29633802 9.3763501 C-6.79174833 9.34179659 -6.79174833 9.34179659 -9.02001953 7.11352539 C-9.14501953 3.98852539 -9.14501953 3.98852539 -9.02001953 1.11352539 C-6.03437167 -0.37929854 -3.33018235 -0.00564438 0 0 Z " fill="#FBFBFB" transform="translate(216.02001953125,561.886474609375)"/>
<path d="M0 0 C4.29 0 8.58 0 13 0 C13 29.37 13 58.74 13 89 C9.04 89 5.08 89 1 89 C-0.81115624 87.18884376 -0.11995376 84.70122499 -0.12442017 82.29098511 C-0.12082489 81.47171539 -0.11722961 80.65244568 -0.11352539 79.80834961 C-0.11367142 78.94988937 -0.11381744 78.09142914 -0.1139679 77.20695496 C-0.11326847 74.35539262 -0.1054747 71.50389475 -0.09765625 68.65234375 C-0.09579218 66.68079158 -0.09436822 64.70923895 -0.09336853 62.73768616 C-0.08954251 57.53773733 -0.07971152 52.33781625 -0.06866455 47.13787842 C-0.05845222 41.83606339 -0.05387129 36.5342439 -0.04882812 31.23242188 C-0.03808933 20.82160237 -0.02101191 10.41080349 0 0 Z " fill="#1B1B1B" transform="translate(925,534)"/>
<path d="M0 0 C4.29 0 8.58 0 13 0 C13 29.37 13 58.74 13 89 C9.04 89 5.08 89 1 89 C-0.81115624 87.18884376 -0.11995376 84.70122499 -0.12442017 82.29098511 C-0.12082489 81.47171539 -0.11722961 80.65244568 -0.11352539 79.80834961 C-0.11367142 78.94988937 -0.11381744 78.09142914 -0.1139679 77.20695496 C-0.11326847 74.35539262 -0.1054747 71.50389475 -0.09765625 68.65234375 C-0.09579218 66.68079158 -0.09436822 64.70923895 -0.09336853 62.73768616 C-0.08954251 57.53773733 -0.07971152 52.33781625 -0.06866455 47.13787842 C-0.05845222 41.83606339 -0.05387129 36.5342439 -0.04882812 31.23242188 C-0.03808933 20.82160237 -0.02101191 10.41080349 0 0 Z " fill="#1B1B1B" transform="translate(682,534)"/>
<path d="M0 0 C5.16040633 -0.09205878 10.317941 -0.17162277 15.47851562 -0.21972656 C17.23219479 -0.2397871 18.98580753 -0.26704251 20.73925781 -0.30175781 C23.26644318 -0.35052302 25.79274091 -0.37302392 28.3203125 -0.390625 C29.09867462 -0.41127014 29.87703674 -0.43191528 30.6789856 -0.45318604 C36.85281423 -0.45570559 40.25814048 1.53232643 44.875 5.6875 C46.68305607 9.4040597 46.63792623 12.95512709 46 17 C43.92466574 21.07654945 42.25333344 23.35625365 38 25 C35.24194336 25.28710938 35.24194336 25.28710938 32.08984375 25.34375 C30.35637695 25.38822266 30.35637695 25.38822266 28.58789062 25.43359375 C26.78094727 25.46646484 26.78094727 25.46646484 24.9375 25.5 C22.57145104 25.54403156 20.20553598 25.59602762 17.83984375 25.65625 C16.79175537 25.67494141 15.74366699 25.69363281 14.66381836 25.71289062 C9.73190275 26.09937245 4.86723933 27.11504739 0 28 C0 18.76 0 9.52 0 0 Z " fill="#F6F6F6" transform="translate(977,547)"/>
<path d="M0 0 C2.72954379 2.41505941 4.14122448 4.93422573 5.7421875 8.19140625 C6.25136719 9.21943359 6.76054688 10.24746094 7.28515625 11.30664062 C7.80980469 12.38107422 8.33445312 13.45550781 8.875 14.5625 C9.39191406 15.60986328 9.90882813 16.65722656 10.44140625 17.73632812 C11.46676303 19.81416068 12.48991374 21.89308349 13.51074219 23.97314453 C15.65247911 28.32613705 17.82389053 32.66411095 20 37 C18.88927124 37.029729 18.88927124 37.029729 17.75610352 37.06005859 C14.35791589 37.15609606 10.9602779 37.26545316 7.5625 37.375 C6.39783203 37.4059375 5.23316406 37.436875 4.03320312 37.46875 C-3.70489305 37.73031945 -10.62287657 38.54095886 -18 41 C-16.59157786 36.49004337 -14.82836954 32.29866916 -12.8125 28.02734375 C-12.50932861 27.38181046 -12.20615723 26.73627716 -11.89379883 26.07118225 C-10.93233903 24.02512589 -9.96645541 21.98120079 -9 19.9375 C-8.03421998 17.88992094 -7.06942315 15.84188977 -6.10620117 13.79310608 C-5.23298692 11.93655407 -4.35680882 10.08139694 -3.48046875 8.22631836 C-2.23354524 5.50895454 -1.07723428 2.78800054 0 0 Z " fill="#F9F9F9" transform="translate(522,560)"/>
<path d="M0 0 C0.99 0.33 1.98 0.66 3 1 C3 18.49 3 35.98 3 54 C1.68 54 0.36 54 -1 54 C-1.02526648 46.47030348 -1.04283141 38.9406178 -1.05493164 31.41088867 C-1.0599737 28.84708243 -1.06680714 26.28327909 -1.07543945 23.71948242 C-1.08751064 20.04344979 -1.09322942 16.36745502 -1.09765625 12.69140625 C-1.10281754 11.53725723 -1.10797882 10.38310822 -1.11329651 9.19398499 C-1.11337204 8.13296066 -1.11344757 7.07193634 -1.11352539 5.97875977 C-1.115746 5.03944107 -1.11796661 4.10012238 -1.12025452 3.13233948 C-1 1 -1 1 0 0 Z " fill="#3D3D3D" transform="translate(346,467)"/>
<path d="M0 0 C0.33 0 0.66 0 1 0 C1.01458252 0.68102783 1.02916504 1.36205566 1.04418945 2.0637207 C1.11862696 5.14722215 1.21530083 8.22963567 1.3125 11.3125 C1.33505859 12.38435547 1.35761719 13.45621094 1.38085938 14.56054688 C1.41630859 15.58857422 1.45175781 16.61660156 1.48828125 17.67578125 C1.51446533 18.62364502 1.54064941 19.57150879 1.56762695 20.5480957 C2.06891562 23.39080721 2.88564974 24.13882323 5 26 C5 26.66 5 27.32 5 28 C4.34 28 3.68 28 3 28 C2.0268319 30.9195043 1.8070454 33.05444951 1.68359375 36.10546875 C1.64169922 37.08837891 1.59980469 38.07128906 1.55664062 39.08398438 C1.51732422 40.10814453 1.47800781 41.13230469 1.4375 42.1875 C1.37272461 43.74114258 1.37272461 43.74114258 1.30664062 45.32617188 C1.20055634 47.8839819 1.09849854 50.44188845 1 53 C0.34 53 -0.32 53 -1 53 C-1.01401855 52.13048706 -1.01401855 52.13048706 -1.02832031 51.2434082 C-1.0822407 48.59893054 -1.16584129 45.95618107 -1.25 43.3125 C-1.26417969 42.40048828 -1.27835937 41.48847656 -1.29296875 40.54882812 C-1.49494997 34.99434449 -2.02215589 32.16082494 -6 28 C-6 27.01 -6 26.02 -6 25 C-4.68 24.34 -3.36 23.68 -2 23 C-1.96241577 22.00818726 -1.96241577 22.00818726 -1.92407227 20.99633789 C-1.80846898 18.01817695 -1.68558246 15.0403608 -1.5625 12.0625 C-1.50352539 10.50112305 -1.50352539 10.50112305 -1.44335938 8.90820312 C-1.40146484 7.91884766 -1.35957031 6.92949219 -1.31640625 5.91015625 C-1.26141968 4.53549194 -1.26141968 4.53549194 -1.20532227 3.13305664 C-1 1 -1 1 0 0 Z " fill="#1F1F1F" transform="translate(365,468)"/>
</svg>
